<svg xmlns="http://www.w3.org/2000/svg" viewBox="0 0 1440 320"><path fill="rgb(7, 7, 7)" fill-opacity="1" d="M0,64L30,80C60,96,120,128,180,133.3C240,139,300,117,360,106.7C420,96,480,96,540,117.3C600,139,660,181,720,176C780,171,840,117,900,112C960,107,1020,149,1080,160C1140,171,1200,149,1260,128C1320,107,1380,85,1410,74.7L1440,64L1440,320L1410,320C1380,320,1320,320,1260,320C1200,320,1140,320,1080,320C1020,320,960,320,900,320C840,320,780,320,720,320C660,320,600,320,540,320C480,320,420,320,360,320C300,320,240,320,180,320C120,320,60,320,30,320L0,320Z"></path></svg>