<?xml version="1.0" standalone="no"?>
<!DOCTYPE svg PUBLIC "-//W3C//DTD SVG 20010904//EN"
 "http://www.w3.org/TR/2001/REC-SVG-20010904/DTD/svg10.dtd">
<svg version="1.0" xmlns="http://www.w3.org/2000/svg"
 width="512.000000pt" height="512.000000pt" viewBox="0 0 512.000000 512.000000"
 preserveAspectRatio="xMidYMid meet">

<g transform="translate(0.000000,512.000000) scale(0.100000,-0.100000)"
fill="rgb(248,113,113)" stroke="none">
<path d="M279 5097 c-121 -41 -204 -119 -251 -234 l-23 -58 -3 -2225 c-2
-2190 -2 -2226 17 -2290 38 -123 121 -214 238 -262 l58 -23 2240 0 c1786 0
2249 3 2282 13 68 20 164 91 206 152 20 30 46 83 57 118 20 63 20 101 20 2272
0 2171 0 2209 -20 2272 -43 141 -143 237 -285 274 -41 11 -450 14 -2260 14
l-2210 -1 -66 -22z m2486 -1197 c110 -13 251 -49 346 -90 168 -71 322 -212
397 -361 49 -98 82 -218 82 -301 l0 -58 -312 2 -313 3 -6 55 c-12 110 -78 197
-189 249 -49 23 -67 26 -170 26 -96 0 -125 -4 -177 -23 -119 -46 -186 -129
-186 -232 0 -144 123 -233 498 -360 316 -107 531 -225 659 -360 131 -140 186
-270 194 -467 7 -184 -30 -317 -125 -446 -107 -146 -326 -260 -578 -303 -137
-23 -398 -23 -525 0 -286 51 -527 181 -664 356 -98 126 -166 308 -166 447 l0
63 313 0 313 0 11 -83 c6 -46 22 -106 34 -132 26 -55 82 -116 129 -140 107
-55 333 -73 447 -34 73 24 139 78 164 133 27 60 25 158 -5 221 -44 96 -136
155 -371 239 -445 160 -596 237 -742 379 -88 85 -146 171 -181 269 -34 97 -43
280 -17 377 53 206 233 395 460 482 213 83 455 114 680 89z"/>
</g>
</svg>
